<svg id="Layer_1" data-name="Layer 1" xmlns="http://www.w3.org/2000/svg" viewBox="0 0 1092.66 648.52"><defs><style>.cls-1{fill:#e20e17;}.cls-2,.cls-3{fill:#fff;}.cls-3{font-size:138.22px;font-family:Montserrat-ExtraBold, Montserrat;font-weight:800;}</style></defs><path class="cls-1" d="M928.34,661.1H818l-35.45-90.31H648.61l-12.44-12H790.68l35.46,90.3h84.08L788.82,364.62l9.21-9.21Zm-359,0h-108l55.11-131.19h13.13L479.37,649.13H561.2L589,579.33l8.64,8.64ZM766.22,496.74H621.69l39.62-100.21H674l-34.72,88.24H748.65l-35.16-87.89h13Zm-215.6-15.55H537.84l35.53-85.69h12.84ZM691.26,352.65H678.39l15.55-39.5,15.54,39.55H696.66l-2.7-7.05Zm-85.33-3H592.84l52-121.94h99.42l33.42,79-9.13,9.13-32.2-76.16H652.73Z" transform="translate(6.33 -227.69)"/><path class="cls-1" d="M239.83,362.31V233.67h92.64V415.91Zm92.64,116.57V655.12H239.83V426.68Z" transform="translate(6.33 -227.69)"/><path class="cls-2" d="M662,596.76a24,24,0,0,0-12.3,3.46L549.9,500.44H449.65a24.24,24.24,0,1,0,0,12H545l96.28,96.28A24.09,24.09,0,0,0,662,645.23a24.24,24.24,0,1,0,0-48.47Z" transform="translate(6.33 -227.69)"/><path class="cls-2" d="M861.87,233.68a24.11,24.11,0,0,0-20.77,36.55l-96.27,96.28H549.32a24.23,24.23,0,1,0,0,12H749.79l99.77-99.78a24.2,24.2,0,1,0,12.31-45Z" transform="translate(6.33 -227.69)"/><path class="cls-2" d="M383.76,572.21V471l-184.59-105a23.93,23.93,0,0,0,1-6.37,24.32,24.32,0,1,0-6.81,16.8L371.79,477.91v94.3a24.25,24.25,0,1,0,12,0Z" transform="translate(6.33 -227.69)"/><text class="cls-3" transform="translate(16.96 611.48)">ISMAIL ARRAF</text></svg>